<?xml version="1.0" standalone="no"?>
<!DOCTYPE svg PUBLIC "-//W3C//DTD SVG 20010904//EN"
 "http://www.w3.org/TR/2001/REC-SVG-20010904/DTD/svg10.dtd">
<svg version="1.0" xmlns="http://www.w3.org/2000/svg"
 width="138.000000pt" height="138.000000pt" viewBox="0 0 138.000000 138.000000"
 preserveAspectRatio="xMidYMid meet">
<metadata>
Created by potrace 1.14, written by Peter Selinger 2001-2017
</metadata>
<g transform="translate(0.000000,138.000000) scale(0.100000,-0.100000)"
fill="#000000" stroke="none">
<path d="M0 690 l0 -690 690 0 690 0 0 690 0 690 -690 0 -690 0 0 -690z m390
210 l0 -71 30 16 c44 23 97 19 125 -9 30 -30 37 -68 33 -176 -3 -79 -4 -85
-25 -88 -23 -3 -23 -2 -23 102 0 93 -3 109 -20 126 -24 24 -39 25 -85 6 l-34
-15 -3 -108 c-3 -103 -4 -108 -25 -111 l-23 -3 0 200 0 201 25 0 c24 0 25 -2
25 -70z m552 -2 l3 -43 48 -3 c39 -3 47 -6 47 -23 0 -16 -7 -19 -50 -19 l-50
0 0 -81 c0 -102 9 -119 60 -119 32 0 40 -4 40 -19 0 -37 -93 -36 -127 1 -14
16 -19 41 -21 119 -3 77 -7 99 -18 99 -19 0 -18 36 1 44 10 3 15 19 15 46 0
36 3 40 24 40 22 0 25 -5 28 -42z m-708 -48 c18 -6 26 -17 26 -33 0 -24 0 -24
-45 -9 -57 18 -108 7 -113 -25 -4 -26 18 -40 79 -49 113 -18 119 -132 8 -164
-48 -14 -136 5 -144 31 -10 32 3 39 41 23 78 -33 169 3 117 45 -12 10 -42 22
-66 25 -57 9 -87 37 -87 81 0 49 46 85 110 85 27 0 60 -4 74 -10z m1073 -14
c27 -24 28 -27 31 -145 l4 -121 -26 0 -26 0 0 105 c0 92 -3 108 -20 125 -24
24 -39 25 -85 6 l-34 -15 -3 -108 c-3 -103 -4 -108 -25 -111 -23 -3 -23 -3
-23 137 l0 141 25 0 c14 0 25 -5 25 -10 0 -6 12 -4 28 4 42 23 96 20 129 -8z
m-587 -1 c0 -14 3 -14 30 0 16 8 45 15 65 15 31 0 35 -3 35 -25 0 -23 -4 -25
-44 -25 -73 0 -85 -18 -88 -130 -3 -90 -4 -95 -25 -98 -23 -3 -23 -3 -23 137
l0 141 25 0 c16 0 25 -6 25 -15z"/>
</g>
</svg>
